<svg width="72" height="73" viewBox="0 0 72 73" fill="none" xmlns="http://www.w3.org/2000/svg">
<path d="M43.5791 39.6259C42.533 39.6259 41.6843 38.7772 41.6843 37.7312V12.0893H32.5647C31.5186 12.0893 30.6699 11.2406 30.6699 10.1946C30.6699 9.14856 31.5186 8.29987 32.5647 8.29987H43.5791C44.6251 8.29987 45.4738 9.14856 45.4738 10.1946V37.7312C45.4738 38.7772 44.6251 39.6259 43.5791 39.6259Z" fill="#006CE4"/>
<path d="M39.7895 68.9314H1.89474C0.848691 68.9314 0 68.0828 0 67.0367V10.1946C0 9.14856 0.848691 8.29987 1.89474 8.29987H12.8845C13.9305 8.29987 14.7792 9.14856 14.7792 10.1946C14.7792 11.2406 13.9305 12.0893 12.8845 12.0893H3.78947V65.142H39.7895C40.8355 65.142 41.6842 65.9907 41.6842 67.0367C41.6842 68.0828 40.8355 68.9314 39.7895 68.9314Z" fill="#006CE4"/>
<path d="M54.9473 34.4981C53.9013 34.4981 53.0526 33.6494 53.0526 32.6034V21.531L42.8092 16.9792C41.8532 16.5536 41.4227 15.4336 41.847 14.4776C42.2726 13.5215 43.3865 13.0898 44.3487 13.5154L55.7171 18.568C56.4017 18.8727 56.8421 19.5512 56.8421 20.2999V32.6034C56.8421 33.6494 55.9934 34.4981 54.9473 34.4981Z" fill="#006CE4"/>
<path d="M11.3562 33.0647C10.3101 33.0647 9.46143 32.216 9.46143 31.17V27.8789C9.46143 26.8328 10.3101 25.9841 11.3562 25.9841C12.4022 25.9841 13.2509 26.8328 13.2509 27.8789V31.17C13.2509 32.216 12.4022 33.0647 11.3562 33.0647Z" fill="#006CE4"/>
<path d="M18.935 33.0647C17.889 33.0647 17.0403 32.216 17.0403 31.17V27.8789C17.0403 26.8328 17.889 25.9841 18.935 25.9841C19.9811 25.9841 20.8298 26.8328 20.8298 27.8789V31.17C20.8298 32.216 19.9811 33.0647 18.935 33.0647Z" fill="#006CE4"/>
<path d="M26.5139 33.0647C25.4678 33.0647 24.6191 32.216 24.6191 31.17V27.8789C24.6191 26.8328 25.4678 25.9841 26.5139 25.9841C27.5599 25.9841 28.4086 26.8328 28.4086 27.8789V31.17C28.4086 32.216 27.5599 33.0647 26.5139 33.0647Z" fill="#006CE4"/>
<path d="M34.093 33.0647C33.0469 33.0647 32.1982 32.216 32.1982 31.17V27.8789C32.1982 26.8328 33.0469 25.9841 34.093 25.9841C35.139 25.9841 35.9877 26.8328 35.9877 27.8789V31.17C35.9877 32.216 35.139 33.0647 34.093 33.0647Z" fill="#006CE4"/>
<path d="M11.3562 42.9368C10.3101 42.9368 9.46143 42.0881 9.46143 41.0421V37.7509C9.46143 36.7049 10.3101 35.8562 11.3562 35.8562C12.4022 35.8562 13.2509 36.7049 13.2509 37.7509V41.0421C13.2509 42.0881 12.4022 42.9368 11.3562 42.9368Z" fill="#006CE4"/>
<path d="M18.935 42.9368C17.889 42.9368 17.0403 42.0881 17.0403 41.0421V37.7509C17.0403 36.7049 17.889 35.8562 18.935 35.8562C19.9811 35.8562 20.8298 36.7049 20.8298 37.7509V41.0421C20.8298 42.0881 19.9811 42.9368 18.935 42.9368Z" fill="#006CE4"/>
<path d="M26.5139 42.9368C25.4678 42.9368 24.6191 42.0881 24.6191 41.0421V37.7509C24.6191 36.7049 25.4678 35.8562 26.5139 35.8562C27.5599 35.8562 28.4086 36.7049 28.4086 37.7509V41.0421C28.4086 42.0881 27.5599 42.9368 26.5139 42.9368Z" fill="#006CE4"/>
<path d="M34.093 42.9368C33.0469 42.9368 32.1982 42.0881 32.1982 41.0421V37.7509C32.1982 36.7049 33.0469 35.8562 34.093 35.8562C35.139 35.8562 35.9877 36.7049 35.9877 37.7509V41.0421C35.9877 42.0881 35.139 42.9368 34.093 42.9368Z" fill="#006CE4"/>
<path d="M11.3562 52.5104C10.3101 52.5104 9.46143 51.6617 9.46143 50.6157V47.3245C9.46143 46.2785 10.3101 45.4298 11.3562 45.4298C12.4022 45.4298 13.2509 46.2785 13.2509 47.3245V50.6157C13.2509 51.6617 12.4022 52.5104 11.3562 52.5104Z" fill="#006CE4"/>
<path d="M18.935 52.5104C17.889 52.5104 17.0403 51.6617 17.0403 50.6157V47.3245C17.0403 46.2785 17.889 45.4298 18.935 45.4298C19.9811 45.4298 20.8298 46.2785 20.8298 47.3245V50.6157C20.8298 51.6617 19.9811 52.5104 18.935 52.5104Z" fill="#006CE4"/>
<path d="M26.5139 52.5104C25.4678 52.5104 24.6191 51.6617 24.6191 50.6157V47.3245C24.6191 46.2785 25.4678 45.4298 26.5139 45.4298C27.5599 45.4298 28.4086 46.2785 28.4086 47.3245V50.6157C28.4086 51.6617 27.5599 52.5104 26.5139 52.5104Z" fill="#006CE4"/>
<path d="M34.093 52.5104C33.0469 52.5104 32.1982 51.6617 32.1982 50.6157V47.3245C32.1982 46.2785 33.0469 45.4298 34.093 45.4298C35.139 45.4298 35.9877 46.2785 35.9877 47.3245V50.6157C35.9877 51.6617 35.139 52.5104 34.093 52.5104Z" fill="#006CE4"/>
<path d="M31.5665 68.9315C30.5205 68.9315 29.6718 68.0828 29.6718 67.0367V58.8262H15.777V67.0367C15.777 68.0828 14.9283 68.9315 13.8823 68.9315C12.8362 68.9315 11.9875 68.0828 11.9875 67.0367V56.9315C11.9875 55.8854 12.8362 55.0367 13.8823 55.0367H31.5665C32.6125 55.0367 33.4612 55.8854 33.4612 56.9315V67.0367C33.4612 68.0828 32.6125 68.9315 31.5665 68.9315Z" fill="#006CE4"/>
<path d="M8.21053 20.9315H1.89474C0.848691 20.9315 0 20.0828 0 19.0368C0 17.9907 0.848691 17.142 1.89474 17.142H8.21053C9.25657 17.142 10.1053 17.9907 10.1053 19.0368C10.1053 20.0828 9.25657 20.9315 8.21053 20.9315Z" fill="#006CE4"/>
<path d="M43.5518 20.9315H37.236C36.19 20.9315 35.3413 20.0828 35.3413 19.0368C35.3413 17.9907 36.19 17.142 37.236 17.142H43.5518C44.5979 17.142 45.4466 17.9907 45.4466 19.0368C45.4466 20.0828 44.5979 20.9315 43.5518 20.9315Z" fill="#006CE4"/>
<path d="M17.9641 23.4578C17.1278 23.4578 16.2976 23.195 15.5883 22.6794C14.3338 21.7666 13.717 20.2506 13.9798 18.7222L14.5287 15.5224L12.2034 13.2563C11.092 12.1733 10.6997 10.5844 11.1796 9.10787C11.6594 7.63254 12.9103 6.57786 14.446 6.35458L17.6582 5.8883L19.0965 2.97589C19.7812 1.58567 21.1714 0.720947 22.7232 0.720947C24.2738 0.720947 25.6652 1.58443 26.3523 2.97589L27.7894 5.8883L31.0028 6.35458C32.5386 6.57786 33.7894 7.63378 34.2692 9.1091C34.7479 10.5857 34.3556 12.1745 33.2442 13.2563L30.9202 15.5223L31.4691 18.7222C31.7306 20.2518 31.1138 21.7678 29.8593 22.6794C28.6048 23.5935 26.9728 23.7107 25.5986 22.989L22.7244 21.4767L19.8503 22.989C19.2532 23.3024 18.6068 23.4578 17.9641 23.4578ZM22.7244 17.4417C23.0279 17.4417 23.3301 17.5145 23.6064 17.6601L27.3613 19.635C27.3996 19.6547 27.5044 19.7078 27.6315 19.614C27.761 19.5203 27.7413 19.4056 27.7339 19.3624L27.0159 15.1819C26.9111 14.5676 27.1146 13.9397 27.5612 13.5043L30.5994 10.5425C30.6315 10.5117 30.7141 10.4315 30.6648 10.2797C30.6154 10.128 30.5007 10.1107 30.4576 10.1046L26.2585 9.49521C25.6418 9.40516 25.1076 9.01782 24.8325 8.45903L22.9551 4.65351C22.9353 4.61404 22.8835 4.51042 22.7244 4.51042C22.564 4.51042 22.5135 4.61404 22.495 4.65227L20.615 8.45901C20.3399 9.01781 19.8058 9.40514 19.189 9.49519L14.9913 10.1046C14.9481 10.1107 14.8334 10.128 14.784 10.2797C14.7347 10.4315 14.8173 10.5116 14.8482 10.5425L17.8864 13.5042C18.333 13.9397 18.5365 14.5663 18.4316 15.1806L17.7149 19.3624C17.7075 19.4068 17.6878 19.5203 17.8161 19.614C17.9469 19.7078 18.048 19.6547 18.0875 19.6338L21.8424 17.6588C22.1187 17.5145 22.421 17.4417 22.7244 17.4417Z" fill="#006CE4"/>
<path d="M54.9474 72.721C53.123 72.721 37.8948 64.0553 37.8948 47.76C37.8948 38.3567 45.544 30.7074 54.9474 30.7074C64.3508 30.7074 72 38.3567 72 47.76C72 64.0553 56.7718 72.721 54.9474 72.721ZM54.9474 34.4969C47.6337 34.4969 41.6842 40.4463 41.6842 47.76C41.6842 59.9155 52.0597 67.2662 54.9474 68.7724C57.8351 67.2662 68.2106 59.9155 68.2106 47.76C68.2106 40.4463 62.2611 34.4969 54.9474 34.4969Z" fill="#006CE4"/>
<path d="M50.905 55.0367C49.8589 55.0367 49.0103 54.188 49.0103 53.142V43.0367C49.0103 41.9907 49.8589 41.142 50.905 41.142C51.951 41.142 52.7997 41.9907 52.7997 43.0367V53.142C52.7997 54.188 51.951 55.0367 50.905 55.0367Z" fill="#006CE4"/>
<path d="M58.9897 55.0368C57.9437 55.0368 57.095 54.1881 57.095 53.142V43.0368C57.095 41.9907 57.9437 41.142 58.9897 41.142C60.0358 41.142 60.8844 41.9907 60.8844 43.0368V53.142C60.8844 54.1881 60.0358 55.0368 58.9897 55.0368Z" fill="#006CE4"/>
<path d="M58.9897 49.9841H50.905C49.8589 49.9841 49.0103 49.1354 49.0103 48.0893C49.0103 47.0433 49.8589 46.1946 50.905 46.1946H58.9897C60.0357 46.1946 60.8844 47.0433 60.8844 48.0893C60.8844 49.1354 60.0357 49.9841 58.9897 49.9841Z" fill="#006CE4"/>
</svg>
