<svg width="68" height="69" viewBox="0 0 68 69" fill="none" xmlns="http://www.w3.org/2000/svg">
<path d="M65.8748 64.4709H64.3465L62.6239 57.5806C62.3872 56.6346 61.5374 55.9709 60.5623 55.9709H53.1248V52.7834H59.4998C60.6734 52.7834 61.6248 51.832 61.6248 50.6584C61.6248 49.4849 60.6734 48.5334 59.4998 48.5334V47.4709C59.4998 34.1258 49.1948 23.1437 36.1248 22.0602V18.7834H39.3123C40.4859 18.7834 41.4373 17.832 41.4373 16.6584C41.4373 15.4849 40.4859 14.5334 39.3123 14.5334H28.6873C27.5136 14.5334 26.5623 15.4849 26.5623 16.6584C26.5623 17.832 27.5136 18.7834 28.6873 18.7834H31.8748V22.0602C18.8047 23.1437 8.49976 34.1258 8.49976 47.4709V48.5334C7.32609 48.5334 6.37476 49.4849 6.37476 50.6584C6.37476 51.832 7.32609 52.7834 8.49976 52.7834H14.8748V55.9709H7.43726C6.46215 55.9709 5.61228 56.6346 5.37574 57.5806L3.65303 64.4709H2.12476C0.951092 64.4709 -0.000244141 65.4224 -0.000244141 66.5959C-0.000244141 67.7695 0.951092 68.7209 2.12476 68.7209H65.8748C67.0484 68.7209 67.9998 67.7695 67.9998 66.5959C67.9998 65.4224 67.0484 64.4709 65.8748 64.4709ZM12.7498 47.4709C12.7498 35.7537 22.2824 26.2209 33.9998 26.2209C45.7171 26.2209 55.2498 35.7537 55.2498 47.4709V48.5334C48.7912 48.5334 14.6494 48.5334 12.7498 48.5334V47.4709ZM19.1248 52.7834H48.8748V55.9709H19.1248V52.7834ZM8.03385 64.4709L9.09635 60.2209H58.9032L59.9657 64.4709H8.03385Z" fill="#006CE4"/>
<path d="M2.12476 36.8459H6.37476C7.54842 36.8459 8.49976 35.8945 8.49976 34.7209C8.49976 33.5474 7.54842 32.5959 6.37476 32.5959H2.12476C0.951092 32.5959 -0.000244141 33.5474 -0.000244141 34.7209C-0.000244141 35.8945 0.951092 36.8459 2.12476 36.8459Z" fill="#006CE4"/>
<path d="M61.6248 36.8459H65.8748C67.0484 36.8459 67.9998 35.8945 67.9998 34.7209C67.9998 33.5474 67.0484 32.5959 65.8748 32.5959H61.6248C60.4511 32.5959 59.4998 33.5474 59.4998 34.7209C59.4998 35.8945 60.4511 36.8459 61.6248 36.8459Z" fill="#006CE4"/>
<path d="M12.9634 16.6898C13.7932 17.5196 15.1388 17.5197 15.9686 16.6898C16.7985 15.8598 16.7985 14.5145 15.9686 13.6846L12.9633 10.6792C12.1335 9.84942 10.788 9.84929 9.95815 10.6792C9.12821 11.5092 9.12821 12.8546 9.95815 13.6844L12.9634 16.6898Z" fill="#006CE4"/>
<path d="M53.5336 17.3121C54.0775 17.3121 54.6212 17.1046 55.0361 16.6898L58.0414 13.6846C58.8714 12.8547 58.8714 11.5093 58.0414 10.6795C57.2117 9.84968 55.8662 9.84968 55.0363 10.6795L52.031 13.6846C50.6885 15.027 51.6575 17.3121 53.5336 17.3121Z" fill="#006CE4"/>
<path d="M33.9998 9.22095C35.1734 9.22095 36.1248 8.26948 36.1248 7.09595V2.84595C36.1248 1.67242 35.1734 0.720947 33.9998 0.720947C32.8261 0.720947 31.8748 1.67242 31.8748 2.84595V7.09595C31.8748 8.26948 32.8261 9.22095 33.9998 9.22095Z" fill="#006CE4"/>
</svg>
