<svg width="71" height="62" viewBox="0 0 71 62" fill="none" xmlns="http://www.w3.org/2000/svg">
<path d="M2.8257 53.0386H13.0001V59.1432C13.0001 60.267 13.9112 61.1781 15.035 61.1781H68.2131C69.3369 61.1781 70.248 60.267 70.248 59.1432V6.23635C70.248 5.11256 69.3369 4.20147 68.2131 4.20147H58.0387V2.16659C58.0387 1.0428 57.1277 0.131714 56.0039 0.131714C54.8801 0.131714 53.969 1.0428 53.969 2.16659V4.20147H43.6589V2.16659C43.6589 1.0428 42.7479 0.131714 41.6241 0.131714C40.5003 0.131714 39.5892 1.0428 39.5892 2.16659V4.20147H29.4148V2.16659C29.4148 1.0428 28.5037 0.131714 27.3799 0.131714C26.2561 0.131714 25.345 1.0428 25.345 2.16659V4.20147H15.035C13.9112 4.20147 13.0001 5.11256 13.0001 6.23635V18.4456C13.0001 33.4427 6.76726 44.9799 1.52297 49.4405C0.864753 49.989 0.620703 50.8908 0.912234 51.6965C1.20404 52.502 1.96888 53.0386 2.8257 53.0386ZM66.1783 57.1083H17.0699V53.0386H56.0039C56.4799 53.0386 56.9409 52.8717 57.3066 52.5669C59.7528 50.5294 63.5419 45.6785 66.1783 39.4657V57.1083ZM17.0699 8.27123H25.345V10.3061C25.345 11.4299 26.2561 12.341 27.3799 12.341C28.5037 12.341 29.4148 11.4299 29.4148 10.3061V8.27123H39.5892V10.3061C39.5892 11.4299 40.5003 12.341 41.6241 12.341C42.7479 12.341 43.6589 11.4299 43.6589 10.3061V8.27123H53.969V10.3061C53.969 11.4299 54.8801 12.341 56.0039 12.341C57.1277 12.341 58.0387 11.4299 58.0387 10.3061V8.27123H66.1783V16.4107H17.0699V8.27123ZM17.035 20.4791H66.1422C65.6836 33.3877 60.7293 43.5442 55.2059 48.9688H7.45423C13.7126 40.9947 16.6992 30.6118 17.035 20.4791Z" fill="#006CE4"/>
</svg>
